<?xml version="1.0" standalone="no"?>
<!DOCTYPE svg PUBLIC "-//W3C//DTD SVG 20010904//EN"
 "http://www.w3.org/TR/2001/REC-SVG-20010904/DTD/svg10.dtd">
<svg version="1.0" xmlns="http://www.w3.org/2000/svg"
 width="512.000000pt" height="512.000000pt" viewBox="0 0 512.000000 512.000000"
 preserveAspectRatio="xMidYMid meet">

<g transform="translate(0.000000,512.000000) scale(0.100000,-0.100000)"
fill="#000000" stroke="none">
<path d="M2106 4534 c-1151 -162 -1917 -1249 -1681 -2387 141 -683 651 -1253
1320 -1475 481 -160 1019 -131 1468 81 l107 50 466 -93 c352 -71 469 -92 482
-84 39 25 36 47 -57 521 l-91 463 29 52 c82 149 166 418 195 627 20 142 20
386 1 535 -85 649 -498 1223 -1090 1519 -178 89 -347 144 -560 182 -130 24
-449 29 -589 9z m511 -119 c784 -102 1426 -692 1589 -1461 86 -409 36 -824
-146 -1201 l-59 -123 85 -431 c46 -238 83 -433 82 -435 -2 -1 -196 36 -433 82
l-430 84 -115 -54 c-258 -122 -465 -173 -745 -183 -316 -11 -600 47 -880 182
-202 97 -370 220 -535 391 -109 113 -169 189 -239 301 -192 311 -283 628 -283
993 0 355 80 647 264 963 92 158 281 374 438 500 257 206 585 346 914 391 138
19 351 19 493 1z"/>
<path d="M2305 3593 c-206 -29 -409 -160 -506 -328 -66 -113 -88 -259 -50
-321 64 -106 213 -126 289 -39 16 18 37 55 47 81 32 92 94 209 127 243 54 56
109 75 218 75 109 1 160 -17 224 -82 52 -51 68 -85 74 -158 4 -51 1 -71 -19
-110 -25 -53 -48 -77 -256 -272 -132 -123 -146 -140 -185 -219 -41 -82 -43
-91 -46 -192 -4 -98 -2 -109 20 -141 52 -76 143 -102 224 -64 45 22 67 61 94
172 14 56 33 107 49 129 15 21 101 105 191 188 174 159 225 218 264 300 125
262 -23 578 -323 692 -117 44 -304 64 -436 46z"/>
<path d="M2315 1901 c-22 -10 -55 -34 -72 -54 -100 -114 -48 -288 99 -332 200
-59 352 175 215 332 -40 45 -99 73 -157 73 -25 0 -63 -9 -85 -19z"/>
</g>
</svg>
